# xmcd
# 
# Track frame offsets:
#     180
#     14308
#     28571
#     50308
#     70189
#     81871
#     95257
#     107761
#     119467
#     128585
#     138773
#     147539
#     167039
#     183519
#     200999
#     230338
#     249847
#     259827
#     269361
#     280810
# 
# Disc length: 3992
# 
# Revision: 0
# Processed by: cddbd v1.5.2PL0 Copyright (c) Steve Scherf et al.
# Submitted via: fre:ac v1.1beta1pre4
# 
DISCID=1b0f9614
DTITLE=Various Artist - Dene Yene
DYEAR=0
DGENRE=Ethnic
TTITLE0=Bobby Pea's - Spiritual Song
TTITLE1=Johnny Landry - Hinena Hoho Hine
TTITLE2=Johnny Landry - Love Song
TTITLE3=Johnny Landry - Big River
TTITLE4=Lee Mandeville - Whiskey Before Breakfast
TTITLE5=Lee Mandeville - St. Laurent Breakdown
TTITLE6=Lee Mandeville - Orange Blossom Special
TTITLE7=Mervin Abel - Lady of the Falls
TTITLE8=Angus Beaulieu - San Antone Rose
TTITLE9=Angus Beaulieu - Lady Do Si Do
TTITLE10=Angus Beaulieu - Red Wing
TTITLE11=Paul Andrew - Father's Song
TTITLE12=Paul Andrew - When I Was Young
TTITLE13=Paul Andrew - MaNaa Song
TTITLE14=Adeline Vita - Love Hymn
TTITLE15=Alfred Teniton - Love Hymn
TTITLE16=Richard Laflerty - Rockin' Fiddle
TTITLE17=Richard Laflerty - Walking Uptown
TTITLE18=Richard Laflerty - Andy's Old Time Waltz
TTITLE19=Archie Laflerty - Gathering at Wekwetl
EXTD=Dene and Metis Music of the Western Arctic.  Produced by the Canadian Broadcasting Corporation North.
EXTT0=
EXTT1=
EXTT2=
EXTT3=
EXTT4=
EXTT5=
EXTT6=
EXTT7=
EXTT8=
EXTT9=
EXTT10=
EXTT11=
EXTT12=
EXTT13=
EXTT14=
EXTT15=
EXTT16=
EXTT17=
EXTT18=
EXTT19=
PLAYORDER=
